<svg width="44" height="44" viewBox="0 0 44 44" fill="none" xmlns="http://www.w3.org/2000/svg">
<circle cx="22" cy="22" r="22" fill="white"/>
<path d="M22.3999 18.0001C27.0391 18.0001 30.7999 21.5818 30.7999 26C30.7999 30.4183 27.0391 34 22.4 34C17.7608 34 14 30.4183 14 26C14 21.5818 17.7608 18.0001 22.3999 18.0001Z" fill="url(#paint0_radial)"/>
<path d="M22.3999 14.0003C27.0391 14.0003 30.7999 17.582 30.7999 22.0003C30.7999 26.4185 27.0391 30.0002 22.4 30.0002C17.7608 30.0002 14 26.4185 14 22.0003C14 17.582 17.7608 14.0003 22.3999 14.0003Z" fill="url(#paint1_radial)"/>
<path d="M22.3999 9.99985C27.0391 9.99985 30.7999 13.5815 30.7999 17.9998C30.7999 22.4181 27.0391 25.9998 22.4 25.9998C17.7608 25.9998 14 22.4181 14 17.9998C14 13.5815 17.7608 9.99985 22.3999 9.99985Z" fill="url(#paint2_radial)"/>
<defs>
<radialGradient id="paint0_radial" cx="0" cy="0" r="1" gradientUnits="userSpaceOnUse" gradientTransform="translate(19.5263 32.1053) rotate(-40.6629) scale(14.8619 15.4767)">
<stop stop-color="#FF5555"/>
<stop offset="1" stop-color="#FFDE31"/>
</radialGradient>
<radialGradient id="paint1_radial" cx="0" cy="0" r="1" gradientUnits="userSpaceOnUse" gradientTransform="translate(15.96 6.00038) rotate(63.0922) scale(21.6547 22.7997)">
<stop stop-color="#FF5555"/>
<stop offset="1" stop-color="#FFDE31"/>
</radialGradient>
<radialGradient id="paint2_radial" cx="0" cy="0" r="1" gradientUnits="userSpaceOnUse" gradientTransform="translate(19.5263 24.105) rotate(-40.6629) scale(14.8619 15.4767)">
<stop stop-color="#FF5555"/>
<stop offset="1" stop-color="#FFDE31"/>
</radialGradient>
</defs>
</svg>
